<svg width="180" height="44" viewBox="0 0 180 44" fill="none" xmlns="http://www.w3.org/2000/svg">
<path d="M57.4171 8.50667H71.7952V11.8133H66.2448V30H62.82V11.8133H57.4171V8.50667ZM78.3647 30.3248C76.8886 30.3248 75.6289 30.0394 74.5857 29.4686C73.5425 28.8978 72.7454 28.1105 72.1943 27.1067C71.6432 26.0832 71.3676 24.9317 71.3676 23.6524C71.3676 22.3927 71.6825 21.261 72.3124 20.2571C72.9422 19.2533 73.7886 18.4562 74.8514 17.8657C75.934 17.2556 77.1247 16.9505 78.4238 16.9505C80.1362 16.9505 81.5435 17.4524 82.6457 18.4562C83.7676 19.4403 84.5155 20.8378 84.8895 22.6486L74.8219 26.0438L74.0543 24.1838L81.9076 21.379L81.2286 21.7629C81.012 21.1724 80.6578 20.6606 80.1657 20.2276C79.6933 19.7946 79.0241 19.5781 78.1581 19.5781C77.4692 19.5781 76.859 19.7454 76.3276 20.08C75.7962 20.3949 75.373 20.8476 75.0581 21.4381C74.7628 22.0089 74.6152 22.6879 74.6152 23.4752C74.6152 24.2822 74.7825 24.9908 75.1171 25.601C75.4517 26.2111 75.9044 26.6835 76.4752 27.0181C77.046 27.333 77.6955 27.4905 78.4238 27.4905C78.9355 27.4905 79.4276 27.4019 79.9 27.2248C80.3724 27.0476 80.8152 26.8114 81.2286 26.5162L82.7343 28.9667C82.0847 29.38 81.3663 29.7146 80.579 29.9705C79.8114 30.2067 79.0733 30.3248 78.3647 30.3248ZM92.8759 21.881L95.6216 17.5114H98.9283L94.0864 24.2724L92.8759 21.881ZM99.4893 30H95.5035L85.9378 17.5114H90.0416L99.4893 30ZM92.4921 25.6305L89.4216 30H86.0855L90.9569 23.3867L92.4921 25.6305ZM109.83 30.3248C108.963 30.3248 108.127 30.1378 107.32 29.7638C106.513 29.3898 105.863 28.8781 105.371 28.2286L105.549 27.2248V35.9933H102.242V17.2752H105.106L105.549 20.1686L105.253 19.2829C105.863 18.6137 106.602 18.0625 107.468 17.6295C108.353 17.1768 109.347 16.9505 110.45 16.9505C111.63 16.9505 112.683 17.226 113.609 17.7771C114.534 18.3283 115.262 19.1156 115.793 20.139C116.344 21.1429 116.62 22.3337 116.62 23.7114C116.62 25.0892 116.325 26.2702 115.734 27.2543C115.144 28.2384 114.337 28.9962 113.313 29.5276C112.29 30.059 111.129 30.3248 109.83 30.3248ZM109.18 27.6971C109.908 27.6971 110.577 27.5298 111.188 27.1952C111.817 26.8606 112.319 26.3981 112.693 25.8076C113.067 25.1975 113.254 24.5184 113.254 23.7705C113.254 22.9832 113.077 22.2943 112.723 21.7038C112.388 21.0937 111.926 20.6213 111.335 20.2867C110.764 19.9324 110.125 19.7552 109.416 19.7552C108.767 19.7552 108.186 19.8635 107.674 20.08C107.163 20.2965 106.73 20.6114 106.375 21.0248C106.021 21.4184 105.745 21.8908 105.549 22.4419V24.9514C105.686 25.4829 105.923 25.9552 106.257 26.3686C106.592 26.7819 107.015 27.1067 107.527 27.3429C108.038 27.579 108.59 27.6971 109.18 27.6971ZM126.081 30.3248C124.605 30.3248 123.346 30.0394 122.302 29.4686C121.259 28.8978 120.462 28.1105 119.911 27.1067C119.36 26.0832 119.084 24.9317 119.084 23.6524C119.084 22.3927 119.399 21.261 120.029 20.2571C120.659 19.2533 121.505 18.4562 122.568 17.8657C123.651 17.2556 124.841 16.9505 126.14 16.9505C127.853 16.9505 129.26 17.4524 130.362 18.4562C131.484 19.4403 132.232 20.8378 132.606 22.6486L122.539 26.0438L121.771 24.1838L129.624 21.379L128.945 21.7629C128.729 21.1724 128.374 20.6606 127.882 20.2276C127.41 19.7946 126.741 19.5781 125.875 19.5781C125.186 19.5781 124.576 19.7454 124.044 20.08C123.513 20.3949 123.09 20.8476 122.775 21.4381C122.48 22.0089 122.332 22.6879 122.332 23.4752C122.332 24.2822 122.499 24.9908 122.834 25.601C123.168 26.2111 123.621 26.6835 124.192 27.0181C124.763 27.333 125.412 27.4905 126.14 27.4905C126.652 27.4905 127.144 27.4019 127.617 27.2248C128.089 27.0476 128.532 26.8114 128.945 26.5162L130.451 28.9667C129.801 29.38 129.083 29.7146 128.296 29.9705C127.528 30.2067 126.79 30.3248 126.081 30.3248ZM141.824 30.3248C140.347 30.3248 139.088 30.0394 138.045 29.4686C137.001 28.8978 136.204 28.1105 135.653 27.1067C135.102 26.0832 134.826 24.9317 134.826 23.6524C134.826 22.3927 135.141 21.261 135.771 20.2571C136.401 19.2533 137.247 18.4562 138.31 17.8657C139.393 17.2556 140.584 16.9505 141.883 16.9505C143.595 16.9505 145.002 17.4524 146.105 18.4562C147.226 19.4403 147.974 20.8378 148.348 22.6486L138.281 26.0438L137.513 24.1838L145.366 21.379L144.687 21.7629C144.471 21.1724 144.117 20.6606 143.625 20.2276C143.152 19.7946 142.483 19.5781 141.617 19.5781C140.928 19.5781 140.318 19.7454 139.786 20.08C139.255 20.3949 138.832 20.8476 138.517 21.4381C138.222 22.0089 138.074 22.6879 138.074 23.4752C138.074 24.2822 138.241 24.9908 138.576 25.601C138.911 26.2111 139.363 26.6835 139.934 27.0181C140.505 27.333 141.154 27.4905 141.883 27.4905C142.394 27.4905 142.886 27.4019 143.359 27.2248C143.831 27.0476 144.274 26.8114 144.687 26.5162L146.193 28.9667C145.544 29.38 144.825 29.7146 144.038 29.9705C143.27 30.2067 142.532 30.3248 141.824 30.3248ZM161.935 28.8486C161.384 29.3013 160.705 29.6654 159.898 29.941C159.111 30.1968 158.314 30.3248 157.507 30.3248C156.129 30.3248 154.919 30.059 153.875 29.5276C152.832 28.9765 152.015 28.2187 151.425 27.2543C150.854 26.2702 150.569 25.099 150.569 23.741C150.569 22.3829 150.874 21.2117 151.484 20.2276C152.114 19.2435 152.931 18.4956 153.934 17.9838C154.958 17.4524 156.04 17.1867 157.182 17.1867C158.225 17.1867 159.15 17.3343 159.957 17.6295C160.764 17.9051 161.463 18.2889 162.053 18.781L160.4 20.9362C160.085 20.6803 159.672 20.4441 159.16 20.2276C158.668 19.9914 158.107 19.8733 157.477 19.8733C156.808 19.8733 156.198 20.0406 155.647 20.3752C155.115 20.7098 154.682 21.1724 154.348 21.7629C154.033 22.3337 153.875 22.993 153.875 23.741C153.875 24.4495 154.043 25.099 154.377 25.6895C154.712 26.28 155.174 26.7524 155.765 27.1067C156.355 27.4413 157.034 27.6086 157.802 27.6086C158.294 27.6086 158.747 27.5397 159.16 27.4019C159.593 27.2444 159.967 27.0378 160.282 26.7819L161.935 28.8486ZM165.326 30V6.97143H168.574V20.2571L168.515 19.7552C168.948 18.9483 169.587 18.2889 170.434 17.7771C171.28 17.2457 172.294 16.98 173.475 16.98C174.655 16.98 175.63 17.3244 176.397 18.0133C177.165 18.7022 177.559 19.6076 177.578 20.7295V30H174.272V21.9105C174.252 21.2806 174.075 20.7787 173.74 20.4048C173.406 20.0111 172.874 19.8044 172.146 19.7848C171.477 19.7848 170.876 19.9914 170.345 20.4048C169.814 20.8181 169.39 21.379 169.075 22.0876C168.78 22.7765 168.633 23.5638 168.633 24.4495V30H165.326Z" fill="#E7F1FB"/>
<path d="M2.50892e-06 29.1826C3.96946e-06 37.366 6.7717 44 15.125 44L15.125 29.9424C15.125 21.759 8.3533 15.125 0 15.125L2.50892e-06 29.1826Z" fill="#E7F1FB"/>
<path d="M28.875 14.0576C28.875 22.241 35.6467 28.875 44 28.875L44 14.8174C44 6.63399 37.2283 -1.43084e-06 28.875 0L28.875 14.0576Z" fill="#E7F1FB"/>
<path d="M14.8174 0C6.63399 -3.65135e-07 3.5771e-07 6.7717 0 15.125H14.0576C22.241 15.125 28.875 8.35331 28.875 6.27231e-07L14.8174 0Z" fill="#0069D1"/>
<path d="M29.9424 28.875C21.759 28.875 15.125 35.6467 15.125 44H29.1826C37.366 44 44 37.2283 44 28.875L29.9424 28.875Z" fill="#0069D1"/>
</svg>
